<svg width="120" height="120" fill="none"><path d="M101.829 86.8021L61.6847 109.513V91.8284l25.0132-13.7632 15.1311 8.7369zm2.75-2.4869V36.8284l-14.6838 8.4868v30.5263l14.6838 8.4737zm-86.5653 2.4869l40.1447 22.7109V91.8284L33.1321 78.0652l-15.1184 8.7369zm-2.75-2.4869V36.8284l14.6842 8.4868v30.5263l-14.6842 8.4737zm1.7237-50.5658L58.1584 10.46v17.0921L31.7768 42.0652l-.2105.1184-14.5789-8.4342zm85.8686 0L61.6847 10.46v17.0921l26.3816 14.5.2105.1184 14.5792-8.4211zM58.1574 87.8019l-24.6843-13.579V47.3414l24.6843 14.25v26.2105zm3.5263 0l24.6842-13.5658V47.3414l-24.6842 14.25v26.2105zM35.1442 44.2361l24.7763-13.6184 24.7763 13.6184-24.7763 14.3026-24.7763-14.3026z" fill="#D1D2D6"/></svg>