<svg width="120" height="120" fill="none"><path d="M14 14h92v92H14V14z" fill="#D1D2D6"/><path d="M38.2 90.88l7.03-4.26c1.36 2.41 2.6 4.45 5.56 4.45 2.84 0 4.63-1.11 4.63-5.44v-29.4h8.65v29.53c0 8.95-5.25 13.03-12.91 13.03-6.92 0-10.93-3.59-12.97-7.9M68.76 89.95l7.04-4.07c1.85 3.03 4.26 5.25 8.52 5.25 3.58 0 5.87-1.8 5.87-4.26 0-2.97-2.35-4.02-6.3-5.75l-2.16-.92c-6.24-2.66-10.38-6-10.38-13.03 0-6.49 4.94-11.43 12.66-11.43 5.5 0 9.45 1.92 12.3 6.92l-6.74 4.32c-1.48-2.65-3.09-3.7-5.56-3.7-2.53 0-4.13 1.6-4.13 3.7 0 2.6 1.6 3.65 5.3 5.25l2.17.93c7.35 3.15 11.49 6.36 11.49 13.58 0 7.79-6.12 12.05-14.33 12.05-8.03 0-13.22-3.83-15.75-8.84" fill="#F5F6F7"/></svg>